<svg width="420" height="420" viewBox="0 0 420 420" fill="none" xmlns="http://www.w3.org/2000/svg">
<g filter="url(#filter0_d_15_35)">
<rect x="82" y="82" width="256" height="256" rx="128" fill="url(#paint0_linear_15_35)"/>
<path d="M217.698 228.54V266.555C217.698 268.013 217.122 269.41 216.096 270.44C215.071 271.471 213.679 272.05 212.228 272.05C210.778 272.05 209.386 271.471 208.36 270.44C207.334 269.41 206.758 268.013 206.758 266.555V228.593C208.281 229.71 210.107 230.333 211.993 230.38C214.048 230.439 216.062 229.79 217.698 228.54ZM264.287 217.55C262.899 217.55 261.567 218.105 260.585 219.091C259.604 220.077 259.052 221.414 259.052 222.809V229.434C259.052 230.891 259.628 232.289 260.654 233.319C261.68 234.35 263.071 234.928 264.522 234.928C265.973 234.928 267.365 234.35 268.39 233.319C269.416 232.289 269.992 230.891 269.992 229.434V223.072C270.033 222.318 269.912 221.564 269.636 220.861C269.361 220.159 268.939 219.523 268.397 219C267.855 218.476 267.208 218.075 266.499 217.825C265.79 217.575 265.035 217.482 264.287 217.55ZM194.875 242.947C192.992 242.89 191.168 242.267 189.641 241.159V279.28C189.641 280.744 190.22 282.148 191.251 283.184C192.281 284.219 193.679 284.8 195.137 284.8C196.595 284.8 197.993 284.219 199.024 283.184C200.054 282.148 200.633 280.744 200.633 279.28V241.422C198.924 242.532 196.907 243.066 194.875 242.947ZM247.222 206.141C246.513 206.105 245.804 206.215 245.138 206.463C244.473 206.711 243.864 207.093 243.35 207.584C242.836 208.077 242.427 208.668 242.147 209.324C241.868 209.979 241.724 210.686 241.725 211.399V240.686C241.725 242.15 242.304 243.555 243.335 244.59C244.366 245.625 245.764 246.207 247.222 246.207C248.679 246.207 250.078 245.625 251.108 244.59C252.139 243.555 252.718 242.15 252.718 240.686V211.767C252.76 211.008 252.638 210.249 252.359 209.543C252.08 208.836 251.653 208.198 251.106 207.673C250.558 207.149 249.904 206.749 249.189 206.503C248.473 206.256 247.713 206.168 246.96 206.246L247.222 206.141ZM229.843 217.393C227.871 217.379 225.952 216.755 224.346 215.605V253.831C224.346 255.295 224.925 256.699 225.956 257.735C226.987 258.77 228.385 259.352 229.843 259.352C231.301 259.352 232.698 258.77 233.73 257.735C234.76 256.699 235.339 255.295 235.339 253.831V215.658C233.679 216.9 231.651 217.548 229.581 217.498L229.843 217.393ZM182.993 246.68V139.89C182.979 138.588 182.454 137.345 181.533 136.429C180.612 135.513 179.368 135 178.072 135H176.921C175.625 135 174.381 135.513 173.46 136.429C172.538 137.345 172.014 138.588 172 139.89V246.68C172 247.991 172.518 249.248 173.441 250.175C174.364 251.102 175.616 251.622 176.921 251.622H178.072C179.377 251.622 180.629 251.102 181.552 250.175C182.474 249.248 182.993 247.991 182.993 246.68ZM195.451 238.898H194.3C192.995 238.898 191.743 238.378 190.82 237.451C189.897 236.524 189.379 235.267 189.379 233.955V152.614C189.393 151.313 189.917 150.069 190.839 149.153C191.76 148.238 193.004 147.724 194.3 147.724H195.451C196.747 147.724 197.991 148.238 198.912 149.153C199.833 150.069 200.358 151.313 200.372 152.614V234.061C200.372 235.371 199.853 236.629 198.931 237.556C198.008 238.483 196.756 239.003 195.451 239.003V238.898ZM212.778 226.384H211.574C210.283 226.384 209.044 225.869 208.132 224.952C207.219 224.035 206.706 222.791 206.706 221.494V165.233C206.699 164.587 206.82 163.945 207.061 163.346C207.302 162.747 207.66 162.201 208.113 161.742C208.565 161.282 209.105 160.917 209.699 160.668C210.293 160.419 210.93 160.291 211.574 160.291H212.778C214.074 160.305 215.312 160.832 216.223 161.757C217.135 162.682 217.646 163.932 217.646 165.233V221.494C217.646 222.791 217.133 224.035 216.22 224.952C215.307 225.869 214.069 226.384 212.778 226.384ZM230.104 213.502H229.005C227.709 213.502 226.465 212.989 225.544 212.073C224.623 211.157 224.098 209.914 224.084 208.612V178.326C224.041 177.651 224.137 176.974 224.365 176.337C224.593 175.701 224.949 175.118 225.41 174.625C225.871 174.132 226.428 173.74 227.047 173.472C227.665 173.204 228.332 173.066 229.005 173.068H230.157C231.462 173.068 232.713 173.589 233.636 174.515C234.559 175.442 235.077 176.7 235.077 178.01V208.507C235.084 209.161 234.962 209.809 234.718 210.415C234.474 211.02 234.113 211.571 233.655 212.036C233.197 212.5 232.653 212.869 232.052 213.121C231.451 213.373 230.807 213.502 230.157 213.502H230.104ZM247.483 202.197H246.332C245.027 202.197 243.775 201.677 242.852 200.75C241.93 199.823 241.411 198.566 241.411 197.255V189.42C241.425 188.118 241.95 186.875 242.871 185.96C243.792 185.043 245.036 184.53 246.332 184.53H247.483C248.779 184.53 250.023 185.043 250.944 185.96C251.866 186.875 252.39 188.118 252.404 189.42V197.255C252.404 198.557 251.893 199.806 250.981 200.731C250.07 201.657 248.832 202.184 247.536 202.197H247.483Z" fill="white"/>
</g>
<defs>
<filter id="filter0_d_15_35" x="0" y="0" width="420" height="420" filterUnits="userSpaceOnUse" color-interpolation-filters="sRGB">
<feFlood flood-opacity="0" result="BackgroundImageFix"/>
<feColorMatrix in="SourceAlpha" type="matrix" values="0 0 0 0 0 0 0 0 0 0 0 0 0 0 0 0 0 0 127 0" result="hardAlpha"/>
<feOffset/>
<feGaussianBlur stdDeviation="41"/>
<feComposite in2="hardAlpha" operator="out"/>
<feColorMatrix type="matrix" values="0 0 0 0 0.580392 0 0 0 0 0.329412 0 0 0 0 0.913725 0 0 0 1 0"/>
<feBlend mode="normal" in2="BackgroundImageFix" result="effect1_dropShadow_15_35"/>
<feBlend mode="normal" in="SourceGraphic" in2="effect1_dropShadow_15_35" result="shape"/>
</filter>
<linearGradient id="paint0_linear_15_35" x1="311.5" y1="121.5" x2="128" y2="295" gradientUnits="userSpaceOnUse">
<stop stop-color="#7F22FE"/>
<stop offset="1" stop-color="#6E74ED"/>
</linearGradient>
</defs>
</svg>
