<svg width="74" height="74" viewBox="0 0 74 74" fill="none" xmlns="http://www.w3.org/2000/svg">
<path d="M43.5906 0.173462C43.0703 0.173462 42.55 0.289087 42.0875 0.462524C43.0703 1.09846 43.5906 1.96565 43.8797 2.94846C43.8797 3.06409 43.9375 3.17971 43.9375 3.29534C43.9375 3.41096 43.9953 3.52659 43.9953 3.64221C44.0531 5.31877 43.5328 5.55002 43.1859 6.53284C42.6078 7.80471 42.7812 9.19221 43.475 10.2906C43.5328 10.4063 43.5906 10.5797 43.7062 10.6953C42.9547 5.83909 47.0016 5.14534 47.7531 3.64221C47.8109 2.31252 46.7125 1.44534 45.8453 0.809399C44.9781 0.289087 44.2844 0.173462 43.5906 0.173462ZM49.6609 1.21409C49.6031 1.67659 49.6609 1.56096 49.6031 1.79221C49.6031 1.96565 49.6031 2.13909 49.5453 2.31252C49.4875 2.48596 49.4875 2.60159 49.4297 2.77502C49.3719 2.94846 49.3141 3.06409 49.2562 3.23752C49.1984 3.35315 49.1406 3.46877 49.0828 3.64221C49.025 3.70002 48.9672 3.81565 48.9094 3.87346C48.8516 3.93127 48.8516 3.98909 48.7937 4.0469C48.6781 4.16252 48.6203 4.33596 48.5047 4.45159L48.1578 4.79846C48.0422 4.91409 47.9266 5.02971 47.8109 5.08752C47.4062 5.37659 46.9437 5.60784 46.5391 5.8969C46.4234 6.01252 46.25 6.07034 46.1344 6.18596C46.0187 6.30159 45.9031 6.3594 45.7875 6.47502L45.4406 6.8219C45.325 6.93752 45.2094 7.05315 45.1516 7.22659C45.0359 7.34221 44.9781 7.51565 44.8625 7.63127C44.8047 7.80471 44.7469 7.92034 44.6312 8.09377C44.5734 8.26721 44.5156 8.38284 44.4578 8.55627C44.4 8.72971 44.3422 8.90315 44.3422 9.01877C44.3422 9.07659 44.3422 9.19221 44.2844 9.25002C44.2844 9.30784 44.2844 9.42346 44.2266 9.48127V10.2906C44.2266 10.4641 44.2266 10.5797 44.2844 10.7531C44.2844 10.9266 44.3422 11.0422 44.4 11.2156C44.4578 11.3891 44.5156 11.5047 44.5734 11.6782C44.6312 11.7938 44.6891 11.8516 44.6891 11.9672L40.2953 10.2906C39.5437 10.0594 38.85 9.88596 38.0984 9.71252C37.6937 9.5969 37.2891 9.53909 36.8844 9.42346C35.7281 9.19221 34.5719 9.01877 33.4156 8.90315H33.3C32.1437 8.78752 31.0453 8.72971 29.8891 8.72971C29.0219 8.72971 28.2125 8.78752 27.4031 8.84534C26.2469 8.90315 25.0906 9.07659 23.9344 9.25002L23.0672 9.42346C22.4891 9.53909 21.9109 9.65471 21.3328 9.82815C21.0437 9.88596 20.7547 10.0016 20.4656 10.0594C20.1766 10.175 19.8875 10.2906 19.6562 10.4063C19.425 10.5219 19.2516 10.5797 19.0203 10.6953C18.9625 10.6953 18.9625 10.6953 18.9047 10.7531C18.7312 10.8688 18.5578 10.9266 18.3844 11.0422C18.3266 11.0422 18.2687 11.1 18.2687 11.1C18.0375 11.2157 17.8641 11.3313 17.6906 11.3891C17.575 11.4469 17.4016 11.5047 17.2859 11.5625C17.2281 11.6203 17.1703 11.6203 17.1125 11.6782C16.9391 11.7938 16.7656 11.8516 16.5922 11.9672C16.4187 12.0828 16.2453 12.1407 16.1297 12.2563C16.0141 12.3719 15.8406 12.4297 15.725 12.5453C15.725 12.5453 15.6672 12.5453 15.6672 12.6031C15.5516 12.661 15.4359 12.7766 15.3203 12.8922L15.2625 12.95C15.1469 13.0078 15.0891 13.1235 14.9734 13.1813C14.9156 13.1813 14.9156 13.2391 14.8578 13.2391C14.7422 13.2969 14.6844 13.4125 14.5687 13.4703C14.5687 13.5281 14.5109 13.5281 14.5109 13.5281L14.1641 13.875L14.1062 13.9328L13.7594 14.2797C13.7594 14.2797 13.7594 14.3375 13.7016 14.3375L13.4125 14.6266C13.3547 14.6844 13.2969 14.6844 13.2969 14.7422L12.95 15.0891C12.95 15.1469 12.8922 15.1469 12.8922 15.2047L12.4297 15.6672L12.3719 15.725C12.0828 16.0719 11.7359 16.361 11.3891 16.65C11.0422 16.9391 10.6953 17.2281 10.2906 17.5172C9.88593 17.8063 9.53906 18.0375 9.13437 18.2688C8.72968 18.5 8.325 18.6735 7.92031 18.8469C7.51562 19.0203 7.11093 19.1938 6.70625 19.3094C5.89687 19.4828 5.0875 19.8297 4.39375 19.8875C4.39375 19.5985 4.22031 19.6563 4.04687 19.6563C3.87343 19.7141 3.7 19.7141 3.58437 19.7719C3.41093 19.8297 3.29531 19.8875 3.12187 19.9453C2.94843 20.0031 2.83281 20.061 2.65937 20.1766C2.54375 20.2922 2.37031 20.35 2.25468 20.4657C2.13906 20.5813 1.96562 20.6969 1.85 20.8125C1.73437 20.9282 1.56093 21.0438 1.44531 21.1594C1.32968 21.275 1.21406 21.3906 1.09843 21.5641C0.982809 21.7375 0.867184 21.8531 0.809372 22.0266C0.693747 22.1422 0.635934 22.3157 0.520309 22.4891C0.462497 22.6625 0.346872 22.836 0.289059 23.0094L0.115622 23.5297C0.0578095 23.7031 0.0578094 23.8188 -3.05101e-06 23.9922V24.05C-0.0578156 24.2235 -0.0578156 24.4547 -0.0578156 24.5703C-3.05101e-06 24.5125 -3.05101e-06 24.6281 -3.05101e-06 24.7438V24.975C-3.05101e-06 25.0907 0.0578094 25.2063 0.0578094 25.3219C0.115622 25.4375 0.115622 25.5532 0.173434 25.6688C0.231247 25.7844 0.289059 25.9 0.404684 26.0156C0.462497 26.1313 0.578122 26.2469 0.635934 26.3625C0.751559 26.4781 0.867184 26.5938 0.98281 26.6516C1.09843 26.7672 1.21406 26.8828 1.32968 26.9406C1.79218 27.3453 1.90781 27.461 2.48593 27.8078C2.60156 27.8656 2.65937 27.9235 2.775 27.9813H2.83281V28.0969C2.83281 28.2703 2.89062 28.386 2.94843 28.5594C3.00625 28.7328 3.06406 28.9063 3.12187 29.0219L3.29531 29.3688C3.29531 29.4266 3.35312 29.4266 3.35312 29.4844C3.41093 29.6578 3.52656 29.7735 3.58437 29.8891C3.7 30.0047 3.75781 30.1782 3.87343 30.2938L4.22031 30.6406L4.56718 30.9875H4.625C4.74062 31.1031 4.85625 31.161 4.97187 31.2766C5.0875 31.3922 5.26093 31.45 5.37656 31.5078C5.49218 31.5656 5.66562 31.6813 5.83906 31.7391C5.95468 31.7969 6.07031 31.8547 6.24375 31.8547C6.24375 31.8547 6.30156 31.8547 6.30156 31.9125C6.35937 31.9125 6.475 31.9703 6.53281 31.9703C6.475 33.011 6.475 33.9938 6.59062 34.3407C6.76406 34.7453 7.63125 33.5313 8.44062 32.2016C8.325 33.5313 8.26719 35.0922 8.44062 35.5547C8.67187 36.0172 9.77031 34.5141 10.8109 32.8953C24.3391 29.7735 36.7109 39.1391 38.0406 52.3781C37.8094 50.2969 35.2656 49.1406 34.0516 49.4297C33.4734 50.8172 32.4906 52.6672 30.9297 53.7656C31.0453 52.4938 30.9875 51.2219 30.7562 49.95C30.3516 51.6844 29.5422 53.361 28.3859 54.7485C26.5937 54.8641 24.7437 53.9969 23.8187 52.6672C23.7609 52.6094 23.7031 52.4938 23.6453 52.436C23.5875 52.3203 23.5297 52.1469 23.4719 52.0313C23.4141 51.9156 23.3562 51.7422 23.3562 51.6266V51.2219V50.9328C23.3562 50.8172 23.4141 50.6438 23.4719 50.5281C23.5297 50.4125 23.5297 50.2391 23.5875 50.1235C23.6453 50.0078 23.7031 49.8344 23.8187 49.7188C24.1656 48.7938 24.1656 48.0422 23.5297 47.6375L23.1828 47.4641C23.125 47.4641 23.0094 47.4063 22.9516 47.4063C22.8937 47.4063 22.8359 47.3485 22.7781 47.3485C22.6625 47.2906 22.4891 47.2906 22.3734 47.2328C22.2578 47.175 22.0844 47.175 21.9687 47.175C21.8531 47.175 21.6797 47.1172 21.5641 47.1172H21.275C21.1016 47.1172 20.9859 47.1172 20.8703 47.175C20.7547 47.175 20.5812 47.2328 20.4656 47.2328C20.35 47.2906 20.1766 47.2906 20.0609 47.3485C19.9453 47.4063 19.8297 47.4641 19.6562 47.5219L19.3094 47.6953C14.8578 50.586 17.5172 57.4078 20.5234 59.3735C19.3672 59.6047 18.2109 59.836 17.8641 60.0672L17.8062 60.125C18.6156 60.6453 19.4828 61.05 20.4078 61.3969C21.6219 61.8016 22.9516 62.1485 23.5297 62.3219C25.0906 62.6688 26.7094 62.7844 28.3281 62.6688C36.7687 62.0906 43.7062 55.6156 44.9781 47.175C45.0359 47.3485 45.0359 47.5219 45.0937 47.6953C45.1516 48.0422 45.2094 48.3891 45.2672 48.7938C45.325 48.9672 45.325 49.1406 45.325 49.3141V49.3719C45.325 49.5453 45.3828 49.7188 45.3828 49.8922C45.3828 50.1235 45.4406 50.2969 45.4406 50.5281V52.9563C45.4406 53.1297 45.3828 53.2453 45.3828 53.4188V53.5922C45.3828 53.7656 45.325 53.9391 45.325 54.1703C45.2672 54.3438 45.2672 54.5172 45.2094 54.6906V54.7485C45.1516 54.9219 45.1516 55.0953 45.0937 55.2688V55.3266C45.0359 55.5 45.0359 55.6735 44.9781 55.8469V55.9047L44.8047 56.425V56.4828C44.7469 56.6563 44.6891 56.8875 44.6312 57.061C44.5734 57.2344 44.5156 57.4078 44.4 57.6391C44.3422 57.8125 44.2844 58.0438 44.1687 58.2172C44.1109 58.3906 43.9953 58.5641 43.9375 58.7953C43.8797 58.9688 43.7641 59.1422 43.7062 59.3156C43.7062 59.3735 43.6484 59.4313 43.6484 59.4313C43.6484 59.4313 43.6484 59.4891 43.5906 59.4891C42.3766 61.975 40.5266 64.1719 38.2141 65.9063C38.0406 66.0219 37.925 66.1375 37.7516 66.2531C37.6937 66.311 37.6359 66.311 37.6359 66.3688C37.5203 66.4844 37.3469 66.5422 37.2312 66.6578L37.2891 66.7735C37.5781 66.7156 37.8094 66.7157 38.0984 66.6578C38.6187 66.6 39.0812 66.4844 39.6016 66.3688C39.7172 66.3688 39.8906 66.311 40.0062 66.2531C40.1219 66.2531 40.1797 66.1953 40.2953 66.1953C40.4109 66.1953 40.5844 66.1375 40.7 66.1375C40.8156 66.0797 40.9312 66.0797 41.0469 66.0219C42.9547 65.5594 44.8047 64.9235 46.5969 64.1719C43.5328 68.3344 39.4859 71.6875 34.7453 73.8844C36.9422 73.711 39.1391 73.3641 41.2781 72.7281C48.9672 70.4735 55.4422 65.2703 59.3156 58.275C58.5062 62.6688 56.7719 66.8891 54.1703 70.5891C56.0203 69.375 57.6969 67.9297 59.2578 66.3688C63.5359 61.9172 66.3687 56.1938 67.2937 50.1235C67.9297 53.1297 68.1609 56.2516 67.8719 59.3156C81.6891 40.0641 69.0281 20.1188 63.7094 14.8578C63.7094 14.8 63.6516 14.8 63.6516 14.7422C63.6516 14.9735 63.6516 15.2047 63.5937 15.436C63.5359 15.8985 63.4781 16.3032 63.4203 16.7078C63.3047 17.1125 63.1891 17.575 63.0734 17.9797C62.9578 18.3844 62.7844 18.7891 62.6109 19.1938C62.4375 19.5985 62.2641 20.0032 62.0328 20.35C61.8016 20.6969 61.5703 21.1016 61.3391 21.4485C61.1078 21.7953 60.8187 22.1422 60.5297 22.4891C60.2406 22.836 59.9516 23.125 59.6047 23.4719C59.4312 23.6453 59.2578 23.8188 59.0266 23.9344C58.8531 24.05 58.7375 24.1656 58.5641 24.3391C58.2172 24.6281 57.8703 24.8594 57.4656 25.0907C57.1187 25.3219 56.7141 25.5532 56.3094 25.7266L55.0953 26.2469C54.6906 26.4203 54.2859 26.536 53.8812 26.6516C53.4766 26.7672 53.0141 26.8828 52.6094 26.9406C52.1469 26.9985 51.7422 27.0563 51.3375 27.1141C51.0484 27.1141 50.7016 27.1719 50.4125 27.1719C49.95 27.1719 49.5453 27.1141 49.1406 27.1141C48.6781 27.0563 48.2734 26.9985 47.8687 26.9406C47.4062 26.8828 47.0016 26.7672 46.5969 26.5938C47.0016 26.536 47.4641 26.536 47.8687 26.4203C48.3312 26.3625 48.7359 26.2469 49.1406 26.1313C49.5453 26.0156 50.0078 25.9 50.3547 25.7266L51.5687 25.2063C51.9734 25.0328 52.3203 24.8016 52.725 24.5703C53.0719 24.3391 53.4766 24.05 53.8234 23.8188C54.1703 23.5297 54.5172 23.2407 54.8062 22.9516C55.1531 22.6625 55.4422 22.3156 55.7312 22.0266C56.0203 21.6797 56.3094 21.3328 56.5406 20.986C56.5984 20.9282 56.5984 20.8703 56.6562 20.8125C56.8297 20.5235 57.0609 20.1766 57.2344 19.8875C57.4656 19.4828 57.6391 19.136 57.8125 18.7313C57.9859 18.3266 58.1594 17.9219 58.275 17.5172L58.6219 16.3032C58.6797 15.8407 58.7953 15.436 58.7953 15.0313C58.8531 14.5688 58.8531 14.1641 58.8531 13.7594C58.8531 13.4703 58.8531 13.1235 58.7953 12.8344C58.7375 12.3719 58.6797 11.9672 58.6219 11.5625C58.5641 11.1 58.4484 10.6953 58.3328 10.2906C58.2172 9.88596 58.0437 9.48127 57.9281 9.07659C57.7547 8.6719 57.5812 8.26721 57.4078 7.92034C57.1766 7.51565 57.0031 7.16877 56.7719 6.76409C56.5406 6.41721 56.2516 6.07034 56.0203 5.72346C55.7312 5.37659 55.4422 5.08752 55.1531 4.74065C54.9797 4.56721 54.8062 4.39377 54.6328 4.27815C53.7656 3.5844 52.8984 3.00627 51.9734 2.42815C51.8578 2.37034 51.7422 2.31252 51.5687 2.25471C50.8172 1.61877 50.2391 1.44534 49.6609 1.21409Z" fill="white"/>
</svg>
