<svg width="40" height="40" viewBox="0 0 40 40" fill="none" xmlns="http://www.w3.org/2000/svg">
<path d="M19.124 24.7064V34.7473C19.124 35.1322 18.9711 35.5014 18.6989 35.7734C18.4269 36.0456 18.0577 36.1985 17.6728 36.1985C17.2879 36.1985 16.9188 36.0456 16.6466 35.7734C16.3744 35.5014 16.2215 35.1322 16.2215 34.7473V24.7203C16.6256 25.0154 17.11 25.1801 17.6103 25.1925C18.1555 25.208 18.6898 25.0365 19.124 24.7064ZM31.4842 21.8038C31.1159 21.8038 30.7626 21.9502 30.5022 22.2106C30.2418 22.471 30.0954 22.8243 30.0954 23.1926V24.9425C30.0954 25.3275 30.2483 25.6966 30.5205 25.9687C30.7925 26.2409 31.1617 26.3938 31.5467 26.3938C31.9316 26.3938 32.3008 26.2409 32.5728 25.9687C32.845 25.6966 32.9979 25.3275 32.9979 24.9425V23.2621C33.0088 23.0629 32.9765 22.8638 32.9035 22.6782C32.8304 22.4927 32.7184 22.3249 32.5746 22.1866C32.431 22.0483 32.2592 21.9424 32.0712 21.8763C31.883 21.8104 31.6828 21.7856 31.4842 21.8038ZM13.069 28.5116C12.5692 28.4966 12.0855 28.3322 11.6802 28.0395V38.1081C11.6802 38.4949 11.8338 38.8658 12.1073 39.1393C12.3808 39.4127 12.7517 39.5663 13.1384 39.5663C13.5252 39.5663 13.8961 39.4127 14.1695 39.1393C14.443 38.8658 14.5966 38.4949 14.5966 38.1081V28.1089C14.1431 28.4021 13.608 28.5432 13.069 28.5116ZM26.9567 18.7902C26.7686 18.7807 26.5805 18.8098 26.4039 18.8753C26.2274 18.9409 26.066 19.0417 25.9295 19.1715C25.7931 19.3015 25.6846 19.4578 25.6105 19.631C25.5364 19.8041 25.4982 19.9907 25.4985 20.179V27.9145C25.4985 28.3012 25.6521 28.6722 25.9256 28.9456C26.1992 29.2191 26.57 29.3727 26.9567 29.3727C27.3435 29.3727 27.7145 29.2191 27.9879 28.9456C28.2614 28.6722 28.415 28.3012 28.415 27.9145V20.2762C28.4261 20.0758 28.3936 19.8754 28.3197 19.6887C28.2458 19.5021 28.1325 19.3336 27.9872 19.195C27.8419 19.0564 27.6685 18.9509 27.4786 18.8859C27.2888 18.8207 27.087 18.7975 26.8873 18.818L26.9567 18.7902ZM22.346 21.7622C21.8228 21.7586 21.3137 21.5937 20.8878 21.29V31.3864C20.8878 31.7732 21.0414 32.1441 21.3148 32.4176C21.5884 32.691 21.9592 32.8446 22.346 32.8446C22.7328 32.8446 23.1036 32.691 23.3772 32.4176C23.6506 32.1441 23.8042 31.7732 23.8042 31.3864V21.3039C23.3637 21.632 22.8258 21.8031 22.2766 21.79L22.346 21.7622ZM9.91644 29.4977V1.29157C9.91278 0.947745 9.77363 0.619271 9.5292 0.377443C9.28478 0.135614 8.95482 -1.38867e-05 8.61098 1.06643e-09H8.30545C7.96162 -1.38867e-05 7.63166 0.135614 7.38723 0.377443C7.14281 0.619271 7.00365 0.947745 7 1.29157V29.4977C7 29.8439 7.13755 30.176 7.38236 30.4208C7.62717 30.6656 7.95923 30.8031 8.30545 30.8031H8.61098C8.95722 30.8031 9.28926 30.6656 9.53408 30.4208C9.7789 30.176 9.91644 29.8439 9.91644 29.4977ZM13.2217 27.4423H12.9162C12.57 27.4423 12.2379 27.3048 11.9931 27.06C11.7483 26.8151 11.6108 26.4831 11.6108 26.1368V4.65241C11.6144 4.30861 11.7536 3.9801 11.998 3.73829C12.2424 3.49646 12.5724 3.36083 12.9162 3.36085H13.2217C13.5656 3.36083 13.8955 3.49646 14.14 3.73829C14.3844 3.9801 14.5235 4.30861 14.5272 4.65241V26.1646C14.5272 26.5108 14.3896 26.8429 14.1448 27.0877C13.9 27.3326 13.568 27.4701 13.2217 27.4701V27.4423ZM17.8186 24.137H17.4992C17.1567 24.137 16.8281 24.0009 16.5859 23.7587C16.3437 23.5165 16.2076 23.188 16.2076 22.8454V7.98548C16.2058 7.8147 16.2379 7.64526 16.3019 7.48695C16.3659 7.32865 16.4608 7.18463 16.5809 7.06322C16.701 6.94182 16.8441 6.84543 17.0017 6.77966C17.1593 6.71389 17.3283 6.68002 17.4992 6.68003H17.8186C18.1624 6.6837 18.4909 6.82284 18.7327 7.06726C18.9746 7.31169 19.1101 7.64165 19.1101 7.98548V22.8454C19.1101 23.188 18.974 23.5165 18.7318 23.7587C18.4896 24.0009 18.1612 24.137 17.8186 24.137ZM22.4154 20.7345H22.1238C21.7799 20.7345 21.45 20.5989 21.2055 20.357C20.9611 20.1152 20.8219 19.7868 20.8183 19.4429V11.4435C20.8069 11.2652 20.8322 11.0865 20.8928 10.9183C20.9532 10.7503 21.0476 10.5962 21.17 10.4661C21.2923 10.3359 21.4401 10.2323 21.6042 10.1614C21.7683 10.0907 21.9451 10.0543 22.1238 10.0548H22.4293C22.7755 10.0548 23.1076 10.1923 23.3524 10.4371C23.5973 10.6819 23.7348 11.014 23.7348 11.3602V19.4151C23.7366 19.5878 23.7042 19.759 23.6394 19.919C23.5746 20.079 23.4788 20.2245 23.3573 20.3473C23.2359 20.4699 23.0915 20.5673 22.9321 20.6338C22.7728 20.7003 22.6019 20.7345 22.4293 20.7345H22.4154ZM27.0262 17.7486H26.7206C26.3744 17.7486 26.0424 17.6111 25.7975 17.3663C25.5527 17.1214 25.4152 16.7894 25.4152 16.4432V14.3739C25.4188 14.03 25.558 13.7016 25.8024 13.4598C26.0468 13.2178 26.3768 13.0823 26.7206 13.0823H27.0262C27.37 13.0823 27.7 13.2178 27.9444 13.4598C28.1889 13.7016 28.328 14.03 28.3316 14.3739V16.4432C28.3316 16.787 28.1961 17.117 27.9542 17.3614C27.7124 17.6058 27.3839 17.745 27.0401 17.7486H27.0262Z" fill="#7C3AED"/>
</svg>
